# xmcd
# Track frame offsets:
# 150
# 16197
# 29392
# 43531
# 57740
# 70604
# 88242
# 102421
# 118750
# 133034
# 148951
# 168098
# 183125
# 200181
#
# Disc length: 2881 seconds
# Revision: 0
# Processed by: cddbd v1.5.2PL0 Copyright (c) Steve Scherf et al.
# Submitted via: VisiTrax 2.10.0.248 - For more info visit www.synapsa.com
#
DISCID=cc0b3f0e
DTITLE=Various Artist - Mr Music Country 10-06
DYEAR=2006
DGENRE=Country
TTITLE0=Bastard Sons Of Johnny Cash - Austin Night
TTITLE1=Deryl Dodd - Wearin' a Hole
TTITLE2=Diana Jones - Pretty Girl
TTITLE3=Bobby Flores  with Richard Wolfe - Different Kind Of Flower
TTITLE4=Charlie Mc Coy - Honky Tonk Attitude
TTITLE5=Bubba Cox - Man Of Clay
TTITLE6=Leanne Douglas - Rose Garden
TTITLE7=Willie Carver - Life Without You
TTITLE8=Carly Goodwin - High On a Mountain
TTITLE9=Dusty Owens - Don't Tell Me What To Do
TTITLE10=G. Thomas - High Riding Heroes
TTITLE11=Becky Hobbs - Oklahoma Hearts
TTITLE12=Michael Shane Borden - Truckstop Confessions
TTITLE13=George Jones - When Mama Sang (The Angels Stopped To Listen)
EXTD=
EXTT0=
EXTT1=
EXTT2=
EXTT3=
EXTT4=
EXTT5=
EXTT6=
EXTT7=
EXTT8=
EXTT9=
EXTT10=
EXTT11=
EXTT12=
EXTT13=
PLAYORDER=
